<svg width="676" height="97" viewBox="0 0 676 97" fill="none" xmlns="http://www.w3.org/2000/svg">
<path d="M30.3691 76C27.1465 76 24.1191 75.3978 21.2871 74.1934C18.4551 72.9564 15.9648 71.2799 13.8164 69.1641C11.7005 67.0156 10.0241 64.5254 8.78711 61.6934C7.58268 58.8613 6.98047 55.834 6.98047 52.6113V37.084H0.486328V23.8027H6.98047V2.9043H20.2617V23.8027H40.4766V37.084H20.2617V52.6113C20.2617 54.0111 20.5221 55.3294 21.043 56.5664C21.5638 57.7708 22.2799 58.8288 23.1914 59.7402C24.1029 60.6517 25.1771 61.3841 26.4141 61.9375C27.651 62.4583 28.9694 62.7188 30.3691 62.7188H40.4766V76H30.3691ZM63.7188 9.49609C63.7188 10.7331 63.4746 11.8887 62.9863 12.9629C62.5306 14.0371 61.8958 14.9811 61.082 15.7949C60.2682 16.5762 59.3079 17.2109 58.2012 17.6992C57.127 18.1549 55.9714 18.3828 54.7344 18.3828C53.4974 18.3828 52.3255 18.1549 51.2188 17.6992C50.1445 17.2109 49.2005 16.5762 48.3867 15.7949C47.6055 14.9811 46.9707 14.0371 46.4824 12.9629C46.0267 11.8887 45.7988 10.7331 45.7988 9.49609C45.7988 8.29167 46.0267 7.15234 46.4824 6.07812C46.9707 4.97135 47.6055 4.02734 48.3867 3.24609C49.2005 2.43229 50.1445 1.79753 51.2188 1.3418C52.3255 0.853516 53.4974 0.609375 54.7344 0.609375C55.9714 0.609375 57.127 0.853516 58.2012 1.3418C59.3079 1.79753 60.2682 2.43229 61.082 3.24609C61.8958 4.02734 62.5306 4.97135 62.9863 6.07812C63.4746 7.15234 63.7188 8.29167 63.7188 9.49609ZM61.4238 76H47.9961V23.7051H61.4238V76ZM108.836 49.3887C108.836 47.5658 108.478 45.8079 107.762 44.1152C107.078 42.39 106.134 40.8763 104.93 39.5742C103.725 38.2396 102.309 37.1816 100.682 36.4004C99.0866 35.5866 97.3776 35.1797 95.5547 35.1797C93.7318 35.1797 92.0065 35.4889 90.3789 36.1074C88.7839 36.7259 87.3841 37.6374 86.1797 38.8418C85.0078 40.0462 84.0801 41.5436 83.3965 43.334C82.7129 45.0918 82.3711 47.11 82.3711 49.3887C82.3711 51.5697 82.7129 53.5391 83.3965 55.2969C84.0801 57.0221 85.0078 58.5033 86.1797 59.7402C87.3841 60.9772 88.7839 61.9375 90.3789 62.6211C92.0065 63.2721 93.7318 63.5977 95.5547 63.5977C97.3776 63.5977 99.0866 63.207 100.682 62.4258C102.309 61.612 103.725 60.554 104.93 59.252C106.134 57.9173 107.078 56.4036 107.762 54.7109C108.478 52.9857 108.836 51.2116 108.836 49.3887ZM122.264 69.4082C122.264 73.0866 121.564 76.5371 120.164 79.7598C118.764 82.9824 116.844 85.7982 114.402 88.207C111.993 90.6159 109.161 92.5202 105.906 93.9199C102.684 95.3197 99.2331 96.0195 95.5547 96.0195L88.8652 95.9219V82.5918L95.457 82.6895C97.5404 82.6895 99.3145 82.4128 100.779 81.8594C102.244 81.3385 103.481 80.6061 104.49 79.6621C105.499 78.7507 106.297 77.6927 106.883 76.4883C107.501 75.2839 107.99 74.0143 108.348 72.6797C107.827 73.526 107.078 74.2259 106.102 74.7793C105.125 75.3001 104.035 75.7233 102.83 76.0488C101.658 76.4069 100.421 76.651 99.1191 76.7812C97.8496 76.9115 96.6615 76.9766 95.5547 76.9766C91.8763 76.9766 88.4095 76.3418 85.1543 75.0723C81.9316 73.8027 79.0996 71.9961 76.6582 69.6523C74.2493 67.276 72.3451 64.3789 70.9453 60.9609C69.5456 57.543 68.8457 53.6855 68.8457 49.3887C68.8457 45.4499 69.5456 41.7878 70.9453 38.4023C72.3451 35.0169 74.2493 32.0872 76.6582 29.6133C79.0996 27.1393 81.9316 25.2025 85.1543 23.8027C88.4095 22.403 91.8763 21.7031 95.5547 21.7031C97.2474 21.7031 98.9238 21.9147 100.584 22.3379C102.244 22.7611 103.855 23.347 105.418 24.0957C106.98 24.8444 108.462 25.7233 109.861 26.7324C111.294 27.7415 112.628 28.832 113.865 30.0039L119.041 23.8027H122.264V69.4082ZM153.27 63.207C153.79 63.3698 154.311 63.4837 154.832 63.5488C155.353 63.5814 155.874 63.5977 156.395 63.5977C157.697 63.5977 158.95 63.4186 160.154 63.0605C161.359 62.7025 162.482 62.1979 163.523 61.5469C164.598 60.8633 165.542 60.0495 166.355 59.1055C167.202 58.1289 167.885 57.0547 168.406 55.8828L178.172 65.6973C176.935 67.4551 175.503 69.0339 173.875 70.4336C172.28 71.8333 170.538 73.0215 168.65 73.998C166.795 74.9746 164.826 75.707 162.742 76.1953C160.691 76.7161 158.576 76.9766 156.395 76.9766C152.716 76.9766 149.249 76.293 145.994 74.9258C142.771 73.5586 139.939 71.6543 137.498 69.2129C135.089 66.7715 133.185 63.8743 131.785 60.5215C130.385 57.1361 129.686 53.4251 129.686 49.3887C129.686 45.2546 130.385 41.4785 131.785 38.0605C133.185 34.6426 135.089 31.7292 137.498 29.3203C139.939 26.9115 142.771 25.0397 145.994 23.7051C149.249 22.3704 152.716 21.7031 156.395 21.7031C158.576 21.7031 160.708 21.9635 162.791 22.4844C164.874 23.0052 166.844 23.7539 168.699 24.7305C170.587 25.707 172.345 26.9115 173.973 28.3438C175.6 29.7435 177.033 31.3223 178.27 33.0801L153.27 63.207ZM160.105 35.7168C159.487 35.4889 158.868 35.3424 158.25 35.2773C157.664 35.2122 157.046 35.1797 156.395 35.1797C154.572 35.1797 152.846 35.5215 151.219 36.2051C149.624 36.8561 148.224 37.8001 147.02 39.0371C145.848 40.2741 144.92 41.7715 144.236 43.5293C143.553 45.2546 143.211 47.2077 143.211 49.3887C143.211 49.877 143.227 50.4303 143.26 51.0488C143.325 51.6673 143.406 52.3021 143.504 52.9531C143.634 53.5716 143.781 54.1738 143.943 54.7598C144.106 55.3457 144.318 55.8665 144.578 56.3223L160.105 35.7168ZM198.338 76H185.008V23.7051H188.23L192.625 29.9062C194.773 27.9531 197.215 26.4557 199.949 25.4141C202.684 24.3398 205.516 23.8027 208.445 23.8027H220.213V37.084H208.445C207.046 37.084 205.727 37.3444 204.49 37.8652C203.253 38.3861 202.179 39.1022 201.268 40.0137C200.356 40.9251 199.64 41.9993 199.119 43.2363C198.598 44.4733 198.338 45.7917 198.338 47.1914V76ZM254.539 76H224.07V62.7188H254.539C255.451 62.7188 256.232 62.3932 256.883 61.7422C257.534 61.0911 257.859 60.3099 257.859 59.3984C257.859 58.4544 257.534 57.8359 256.883 57.543C256.232 57.25 255.451 57.1035 254.539 57.1035H240.672C238.361 57.1035 236.196 56.6641 234.178 55.7852C232.16 54.9062 230.402 53.7181 228.904 52.2207C227.407 50.6908 226.219 48.9167 225.34 46.8984C224.493 44.8802 224.07 42.7155 224.07 40.4043C224.07 38.0931 224.493 35.9284 225.34 33.9102C226.219 31.8919 227.407 30.1341 228.904 28.6367C230.402 27.1393 232.16 25.9674 234.178 25.1211C236.196 24.2422 238.361 23.8027 240.672 23.8027H267.674V37.084H240.672C239.76 37.084 238.979 37.4095 238.328 38.0605C237.677 38.7116 237.352 39.4928 237.352 40.4043C237.352 41.3483 237.677 42.1621 238.328 42.8457C238.979 43.4967 239.76 43.8223 240.672 43.8223H254.539C256.818 43.8223 258.966 44.2129 260.984 44.9941C263.003 45.7428 264.76 46.8008 266.258 48.168C267.755 49.5352 268.943 51.179 269.822 53.0996C270.701 55.0202 271.141 57.1198 271.141 59.3984C271.141 61.7096 270.701 63.8743 269.822 65.8926C268.943 67.8783 267.755 69.6361 266.258 71.166C264.76 72.6634 263.003 73.8516 260.984 74.7305C258.966 75.5768 256.818 76 254.539 76ZM304.49 76C301.268 76 298.24 75.3978 295.408 74.1934C292.576 72.9564 290.086 71.2799 287.938 69.1641C285.822 67.0156 284.145 64.5254 282.908 61.6934C281.704 58.8613 281.102 55.834 281.102 52.6113V37.084H274.607V23.8027H281.102V2.9043H294.383V23.8027H314.598V37.084H294.383V52.6113C294.383 54.0111 294.643 55.3294 295.164 56.5664C295.685 57.7708 296.401 58.8288 297.312 59.7402C298.224 60.6517 299.298 61.3841 300.535 61.9375C301.772 62.4583 303.09 62.7188 304.49 62.7188H314.598V76H304.49ZM372.654 49.3887C372.654 53.2949 371.954 56.9408 370.555 60.3262C369.155 63.679 367.251 66.5924 364.842 69.0664C362.433 71.5078 359.601 73.4447 356.346 74.877C353.123 76.2767 349.656 76.9766 345.945 76.9766C342.267 76.9766 338.8 76.2767 335.545 74.877C332.322 73.4447 329.49 71.5078 327.049 69.0664C324.64 66.5924 322.736 63.679 321.336 60.3262C319.936 56.9408 319.236 53.2949 319.236 49.3887C319.236 45.4173 319.936 41.7389 321.336 38.3535C322.736 34.9681 324.64 32.0547 327.049 29.6133C329.49 27.1393 332.322 25.2025 335.545 23.8027C338.8 22.403 342.267 21.7031 345.945 21.7031C349.656 21.7031 353.123 22.3704 356.346 23.7051C359.601 25.0072 362.433 26.8789 364.842 29.3203C367.251 31.7292 369.155 34.6426 370.555 38.0605C371.954 41.446 372.654 45.222 372.654 49.3887ZM359.227 49.3887C359.227 47.2402 358.868 45.3034 358.152 43.5781C357.469 41.8203 356.525 40.3229 355.32 39.0859C354.116 37.8164 352.7 36.8561 351.072 36.2051C349.477 35.5215 347.768 35.1797 345.945 35.1797C344.122 35.1797 342.397 35.5215 340.77 36.2051C339.174 36.8561 337.775 37.8164 336.57 39.0859C335.398 40.3229 334.471 41.8203 333.787 43.5781C333.104 45.3034 332.762 47.2402 332.762 49.3887C332.762 51.4069 333.104 53.2786 333.787 55.0039C334.471 56.7292 335.398 58.2266 336.57 59.4961C337.775 60.7656 339.174 61.7747 340.77 62.5234C342.397 63.2396 344.122 63.5977 345.945 63.5977C347.768 63.5977 349.477 63.2559 351.072 62.5723C352.7 61.8887 354.116 60.9284 355.32 59.6914C356.525 58.4544 357.469 56.957 358.152 55.1992C358.868 53.4414 359.227 51.5046 359.227 49.3887ZM393.357 76H380.027V23.7051H383.25L387.645 29.9062C389.793 27.9531 392.234 26.4557 394.969 25.4141C397.703 24.3398 400.535 23.8027 403.465 23.8027H415.232V37.084H403.465C402.065 37.084 400.747 37.3444 399.51 37.8652C398.273 38.3861 397.199 39.1022 396.287 40.0137C395.376 40.9251 394.66 41.9993 394.139 43.2363C393.618 44.4733 393.357 45.7917 393.357 47.1914V76ZM441.258 63.207C441.779 63.3698 442.299 63.4837 442.82 63.5488C443.341 63.5814 443.862 63.5977 444.383 63.5977C445.685 63.5977 446.938 63.4186 448.143 63.0605C449.347 62.7025 450.47 62.1979 451.512 61.5469C452.586 60.8633 453.53 60.0495 454.344 59.1055C455.19 58.1289 455.874 57.0547 456.395 55.8828L466.16 65.6973C464.923 67.4551 463.491 69.0339 461.863 70.4336C460.268 71.8333 458.527 73.0215 456.639 73.998C454.783 74.9746 452.814 75.707 450.73 76.1953C448.68 76.7161 446.564 76.9766 444.383 76.9766C440.704 76.9766 437.238 76.293 433.982 74.9258C430.76 73.5586 427.928 71.6543 425.486 69.2129C423.077 66.7715 421.173 63.8743 419.773 60.5215C418.374 57.1361 417.674 53.4251 417.674 49.3887C417.674 45.2546 418.374 41.4785 419.773 38.0605C421.173 34.6426 423.077 31.7292 425.486 29.3203C427.928 26.9115 430.76 25.0397 433.982 23.7051C437.238 22.3704 440.704 21.7031 444.383 21.7031C446.564 21.7031 448.696 21.9635 450.779 22.4844C452.863 23.0052 454.832 23.7539 456.688 24.7305C458.576 25.707 460.333 26.9115 461.961 28.3438C463.589 29.7435 465.021 31.3223 466.258 33.0801L441.258 63.207ZM448.094 35.7168C447.475 35.4889 446.857 35.3424 446.238 35.2773C445.652 35.2122 445.034 35.1797 444.383 35.1797C442.56 35.1797 440.835 35.5215 439.207 36.2051C437.612 36.8561 436.212 37.8001 435.008 39.0371C433.836 40.2741 432.908 41.7715 432.225 43.5293C431.541 45.2546 431.199 47.2077 431.199 49.3887C431.199 49.877 431.215 50.4303 431.248 51.0488C431.313 51.6673 431.395 52.3021 431.492 52.9531C431.622 53.5716 431.769 54.1738 431.932 54.7598C432.094 55.3457 432.306 55.8665 432.566 56.3223L448.094 35.7168Z" fill="#EB9E29"/>
<path d="M489.402 71.0195C489.402 72.1914 489.191 73.2982 488.768 74.3398C488.344 75.349 487.758 76.2279 487.01 76.9766C486.261 77.7253 485.382 78.3112 484.373 78.7344C483.364 79.1901 482.273 79.418 481.102 79.418C479.962 79.418 478.872 79.1901 477.83 78.7344C476.821 78.3112 475.926 77.7253 475.145 76.9766C474.396 76.2279 473.794 75.349 473.338 74.3398C472.915 73.2982 472.703 72.1914 472.703 71.0195C472.703 69.8802 472.915 68.806 473.338 67.7969C473.794 66.7878 474.396 65.9089 475.145 65.1602C475.926 64.4115 476.821 63.8255 477.83 63.4023C478.872 62.9466 479.962 62.7188 481.102 62.7188C482.273 62.7188 483.364 62.9466 484.373 63.4023C485.382 63.8255 486.261 64.4115 487.01 65.1602C487.758 65.9089 488.344 66.7878 488.768 67.7969C489.191 68.806 489.402 69.8802 489.402 71.0195ZM545.066 34.1055L535.301 43.9199C534.812 42.5527 534.145 41.332 533.299 40.2578C532.452 39.151 531.492 38.2233 530.418 37.4746C529.376 36.7259 528.237 36.1562 527 35.7656C525.763 35.375 524.493 35.1797 523.191 35.1797C521.368 35.1797 519.643 35.554 518.016 36.3027C516.421 37.0514 515.021 38.1094 513.816 39.4766C512.645 40.8112 511.717 42.4062 511.033 44.2617C510.35 46.1172 510.008 48.168 510.008 50.4141C510.008 52.237 510.35 53.946 511.033 55.541C511.717 57.1361 512.645 58.5358 513.816 59.7402C515.021 60.9447 516.421 61.8887 518.016 62.5723C519.643 63.2559 521.368 63.5977 523.191 63.5977C524.493 63.5977 525.747 63.4186 526.951 63.0605C528.156 62.7025 529.279 62.1979 530.32 61.5469C531.395 60.8633 532.339 60.0495 533.152 59.1055C533.999 58.1289 534.682 57.0547 535.203 55.8828L544.969 65.6973C543.732 67.4551 542.299 69.0339 540.672 70.4336C539.077 71.8333 537.335 73.0215 535.447 73.998C533.592 74.9746 531.622 75.707 529.539 76.1953C527.488 76.7161 525.372 76.9766 523.191 76.9766C519.513 76.9766 516.046 76.293 512.791 74.9258C509.568 73.526 506.736 71.6217 504.295 69.2129C501.886 66.804 499.982 63.9883 498.582 60.7656C497.182 57.543 496.482 54.0924 496.482 50.4141C496.482 46.4102 497.182 42.6667 498.582 39.1836C499.982 35.7005 501.886 32.6732 504.295 30.1016C506.736 27.4974 509.568 25.4466 512.791 23.9492C516.046 22.4518 519.513 21.7031 523.191 21.7031C525.372 21.7031 527.505 21.9798 529.588 22.5332C531.704 23.0866 533.706 23.9004 535.594 24.9746C537.514 26.0163 539.272 27.3021 540.867 28.832C542.495 30.362 543.895 32.1198 545.066 34.1055ZM601.365 49.3887C601.365 53.2949 600.665 56.9408 599.266 60.3262C597.866 63.679 595.962 66.5924 593.553 69.0664C591.144 71.5078 588.312 73.4447 585.057 74.877C581.834 76.2767 578.367 76.9766 574.656 76.9766C570.978 76.9766 567.511 76.2767 564.256 74.877C561.033 73.4447 558.201 71.5078 555.76 69.0664C553.351 66.5924 551.447 63.679 550.047 60.3262C548.647 56.9408 547.947 53.2949 547.947 49.3887C547.947 45.4173 548.647 41.7389 550.047 38.3535C551.447 34.9681 553.351 32.0547 555.76 29.6133C558.201 27.1393 561.033 25.2025 564.256 23.8027C567.511 22.403 570.978 21.7031 574.656 21.7031C578.367 21.7031 581.834 22.3704 585.057 23.7051C588.312 25.0072 591.144 26.8789 593.553 29.3203C595.962 31.7292 597.866 34.6426 599.266 38.0605C600.665 41.446 601.365 45.222 601.365 49.3887ZM587.938 49.3887C587.938 47.2402 587.579 45.3034 586.863 43.5781C586.18 41.8203 585.236 40.3229 584.031 39.0859C582.827 37.8164 581.411 36.8561 579.783 36.2051C578.188 35.5215 576.479 35.1797 574.656 35.1797C572.833 35.1797 571.108 35.5215 569.48 36.2051C567.885 36.8561 566.486 37.8164 565.281 39.0859C564.109 40.3229 563.182 41.8203 562.498 43.5781C561.814 45.3034 561.473 47.2402 561.473 49.3887C561.473 51.4069 561.814 53.2786 562.498 55.0039C563.182 56.7292 564.109 58.2266 565.281 59.4961C566.486 60.7656 567.885 61.7747 569.48 62.5234C571.108 63.2396 572.833 63.5977 574.656 63.5977C576.479 63.5977 578.188 63.2559 579.783 62.5723C581.411 61.8887 582.827 60.9284 584.031 59.6914C585.236 58.4544 586.18 56.957 586.863 55.1992C587.579 53.4414 587.938 51.5046 587.938 49.3887ZM675.242 76H661.961V42.7969C661.961 41.8854 661.782 41.0228 661.424 40.209C661.098 39.3952 660.626 38.679 660.008 38.0605C659.389 37.4421 658.673 36.9701 657.859 36.6445C657.046 36.2865 656.183 36.1074 655.271 36.1074C654.36 36.1074 653.497 36.2865 652.684 36.6445C651.902 36.9701 651.202 37.4421 650.584 38.0605C649.998 38.679 649.526 39.3952 649.168 40.209C648.842 41.0228 648.68 41.8854 648.68 42.7969V76H635.35V42.7969C635.35 41.8854 635.171 41.0228 634.812 40.209C634.487 39.3952 634.015 38.679 633.396 38.0605C632.778 37.4421 632.062 36.9701 631.248 36.6445C630.434 36.2865 629.572 36.1074 628.66 36.1074C627.749 36.1074 626.886 36.2865 626.072 36.6445C625.291 36.9701 624.591 37.4421 623.973 38.0605C623.387 38.679 622.915 39.3952 622.557 40.209C622.231 41.0228 622.068 41.8854 622.068 42.7969V76H608.738V23.7051H611.961L615.574 27.709C617.43 26.1465 619.464 24.9421 621.678 24.0957C623.924 23.2168 626.251 22.7773 628.66 22.7773C631.102 22.7773 633.478 23.2331 635.789 24.1445C638.133 25.056 640.184 26.6348 641.941 28.8809C642.755 27.7741 643.683 26.8301 644.725 26.0488C645.766 25.2676 646.857 24.6328 647.996 24.1445C649.168 23.6562 650.372 23.3145 651.609 23.1191C652.846 22.8913 654.067 22.7773 655.271 22.7773C658.038 22.7773 660.626 23.2982 663.035 24.3398C665.477 25.3815 667.592 26.8138 669.383 28.6367C671.206 30.4271 672.638 32.543 673.68 34.9844C674.721 37.4258 675.242 40.0299 675.242 42.7969V76Z" fill="white"/>
</svg>
